<?xml version="1.0" encoding="UTF-8"?>
<!DOCTYPE svg PUBLIC "-//W3C//DTD SVG 1.1//EN" "http://www.w3.org/Graphics/SVG/1.1/DTD/svg11.dtd">
<svg xmlns="http://www.w3.org/2000/svg" version="1.1" width="770px" height="768px" style="shape-rendering:geometricPrecision; text-rendering:geometricPrecision; image-rendering:optimizeQuality; fill-rule:evenodd; clip-rule:evenodd" xmlns:xlink="http://www.w3.org/1999/xlink">
<g><path style="opacity:0.024" fill="#153389" d="M 360.5,156.5 C 361.357,157.802 361.857,159.135 362,160.5C 359.959,161.423 357.792,161.756 355.5,161.5C 353.631,160.835 351.631,160.169 349.5,159.5C 349.709,158.914 350.043,158.414 350.5,158C 316.458,157.181 282.458,157.347 248.5,158.5C 248.611,157.883 248.944,157.383 249.5,157C 286.498,156.5 323.498,156.333 360.5,156.5 Z"/></g>
<g><path style="opacity:0.985" fill="#042690" d="M 355.5,161.5 C 299.168,173.685 258.668,205.685 234,257.5C 230.816,268.25 227.65,278.917 224.5,289.5C 223.85,289.804 223.183,290.137 222.5,290.5C 221.943,288.668 220.943,287.335 219.5,286.5C 218.844,252.111 219.511,217.944 221.5,184C 220.978,183.439 220.645,182.772 220.5,182C 223.549,178.507 226.049,174.673 228,170.5C 232.122,166.11 236.789,162.443 242,159.5C 244.137,158.923 246.304,158.59 248.5,158.5C 282.458,157.347 316.458,157.181 350.5,158C 350.043,158.414 349.709,158.914 349.5,159.5C 351.631,160.169 353.631,160.835 355.5,161.5 Z"/></g>
<g><path style="opacity:0.486" fill="#566bb3" d="M 408.5,156.5 C 410.833,156.5 413.167,156.5 415.5,156.5C 415.5,157.5 415.5,158.5 415.5,159.5C 413.473,159.338 411.473,159.505 409.5,160C 413.274,160.568 416.607,161.735 419.5,163.5C 414.843,163.117 410.51,161.783 406.5,159.5C 407.612,158.735 408.279,157.735 408.5,156.5 Z"/></g>
<g><path style="opacity:0.984" fill="#042790" d="M 415.5,156.5 C 450.168,156.333 484.835,156.5 519.5,157C 532.207,160.986 541.874,169.319 548.5,182C 548.355,182.772 548.022,183.439 547.5,184C 549.489,217.277 550.156,250.777 549.5,284.5C 548,286.222 546.333,287.888 544.5,289.5C 544.5,289.167 544.5,288.833 544.5,288.5C 544.516,282.442 542.849,277.109 539.5,272.5C 533.53,252.089 523.697,233.756 510,217.5C 485.463,189.825 455.296,171.825 419.5,163.5C 416.607,161.735 413.274,160.568 409.5,160C 411.473,159.505 413.473,159.338 415.5,159.5C 415.5,158.5 415.5,157.5 415.5,156.5 Z"/></g>
<g><path style="opacity:1" fill="#6b7bbd" d="M 539.5,272.5 C 542.849,277.109 544.516,282.442 544.5,288.5C 542.665,283.323 540.999,277.99 539.5,272.5 Z"/></g>
<g><path style="opacity:0.62" fill="#4f66b0" d="M 549.5,284.5 C 549.5,287.167 549.5,289.833 549.5,292.5C 548.15,293.483 547.15,294.816 546.5,296.5C 544.829,294.49 544.162,292.157 544.5,289.5C 546.333,287.888 548,286.222 549.5,284.5 Z"/></g>
<g><path style="opacity:0.541" fill="#7280bd" d="M 219.5,286.5 C 220.943,287.335 221.943,288.668 222.5,290.5C 223.183,290.137 223.85,289.804 224.5,289.5C 224.712,293.546 223.379,296.88 220.5,299.5C 219.627,295.232 219.294,290.898 219.5,286.5 Z"/></g>
<g><path style="opacity:0.557" fill="#7789c1" d="M 221.5,345.5 C 223.585,347.684 224.585,350.351 224.5,353.5C 223.842,352.602 223.176,351.602 222.5,350.5C 222.036,352.975 221.036,354.975 219.5,356.5C 219.01,352.513 219.676,348.846 221.5,345.5 Z"/></g>
<g><path style="opacity:0.255" fill="#556ab2" d="M 549.5,351.5 C 549.5,353.167 549.5,354.833 549.5,356.5C 547.883,355.411 547.05,353.744 547,351.5C 546.583,352.756 545.75,353.423 544.5,353.5C 544.888,348.036 546.554,347.37 549.5,351.5 Z"/></g>
<g><path style="opacity:1" fill="#6777ba" d="M 467.5,462.5 C 466.426,463.885 465.093,465.051 463.5,466C 460.204,467.511 456.871,468.677 453.5,469.5C 457.912,466.798 462.579,464.464 467.5,462.5 Z"/></g>
<g><path style="opacity:1" fill="#3551a6" d="M 351.5,482.5 C 353.833,482.5 356.167,482.5 358.5,482.5C 358.611,483.117 358.944,483.617 359.5,484C 321.458,484.827 283.458,484.66 245.5,483.5C 244.702,483.957 244.369,484.624 244.5,485.5C 243.833,485.167 243.167,484.833 242.5,484.5C 242.5,484.167 242.5,483.833 242.5,483.5C 278.893,483.803 315.226,483.47 351.5,482.5 Z"/></g>
<g><path style="opacity:1" fill="#3752a6" d="M 418.5,481.5 C 418.389,482.117 418.056,482.617 417.5,483C 454.356,483.45 491.023,483.617 527.5,483.5C 486.849,484.632 446.182,484.799 405.5,484C 406.416,483.722 407.082,483.222 407.5,482.5C 411.234,482.677 414.901,482.344 418.5,481.5 Z"/></g>
<g><path style="opacity:0.976" fill="#022690" d="M 224.5,353.5 C 237.311,409.344 269.645,449.178 321.5,473C 331.41,476.401 341.41,479.567 351.5,482.5C 315.226,483.47 278.893,483.803 242.5,483.5C 241.167,483.833 241.167,484.167 242.5,484.5C 243.167,484.833 243.833,485.167 244.5,485.5C 275.664,486.332 306.997,486.832 338.5,487C 337.584,487.278 336.918,487.778 336.5,488.5C 333.598,489.578 330.598,490.244 327.5,490.5C 323.159,490.658 319.159,491.658 315.5,493.5C 310.852,493.547 306.518,494.547 302.5,496.5C 299.008,496.446 296.008,497.446 293.5,499.5C 283.018,502.085 273.018,505.751 263.5,510.5C 258.871,511.481 254.871,513.481 251.5,516.5C 249.821,516.892 248.154,517.392 246.5,518C 240.905,521.791 235.239,525.291 229.5,528.5C 226.802,528.845 224.802,530.178 223.5,532.5C 179.9,560.106 145.9,596.773 121.5,642.5C 120.503,642.47 119.836,642.97 119.5,644C 117.916,647.413 116.583,650.913 115.5,654.5C 112.914,658.928 110.914,663.594 109.5,668.5C 107.953,671.56 105.786,674.226 103,676.5C 102.503,679.146 102.336,681.813 102.5,684.5C 99.3029,694.669 96.6362,705.002 94.5,715.5C 93.8826,715.611 93.3826,715.944 93,716.5C 91.2507,724.414 90.084,732.414 89.5,740.5C 88.8826,740.611 88.3826,740.944 88,741.5C 87.9918,738.655 86.8251,736.655 84.5,735.5C 84.012,659.455 84.512,583.455 86,507.5C 88.8574,502.127 92.3574,497.127 96.5,492.5C 100.982,489.512 105.649,486.845 110.5,484.5C 153.163,483.667 195.829,483.167 238.5,483C 229.697,476.443 223.53,468.276 220,458.5C 219.5,424.502 219.333,390.502 219.5,356.5C 221.036,354.975 222.036,352.975 222.5,350.5C 223.176,351.602 223.842,352.602 224.5,353.5 Z"/></g>
<g><path style="opacity:1" fill="#90a0ce" d="M 358.5,482.5 C 361.665,481.964 364.331,482.797 366.5,485C 361.46,485.678 356.46,486.511 351.5,487.5C 351.918,486.778 352.584,486.278 353.5,486C 317.168,485.5 280.835,485.333 244.5,485.5C 244.369,484.624 244.702,483.957 245.5,483.5C 283.458,484.66 321.458,484.827 359.5,484C 358.944,483.617 358.611,483.117 358.5,482.5 Z"/></g>
<g><path style="opacity:1" fill="#95a5d0" d="M 407.5,482.5 C 407.082,483.222 406.416,483.722 405.5,484C 446.182,484.799 486.849,484.632 527.5,483.5C 527.5,484.167 527.5,484.833 527.5,485.5C 489.818,484.84 452.485,485.506 415.5,487.5C 408.034,485.857 400.367,485.024 392.5,485C 397.632,484.71 402.632,483.876 407.5,482.5 Z"/></g>
<g><path style="opacity:0.976" fill="#032690" d="M 549.5,356.5 C 549.667,390.502 549.5,424.502 549,458.5C 545.66,469.208 538.827,477.375 528.5,483C 571.837,483.167 615.171,483.667 658.5,484.5C 669.121,489.623 677.288,497.29 683,507.5C 684.488,584.455 684.988,661.455 684.5,738.5C 683.85,738.196 683.183,737.863 682.5,737.5C 681.719,738.729 681.219,740.062 681,741.5C 680.617,740.944 680.117,740.611 679.5,740.5C 679.5,739.167 679.5,737.833 679.5,736.5C 679.439,731.703 678.439,727.369 676.5,723.5C 674.921,713.783 672.755,704.116 670,694.5C 666.206,685.617 662.706,676.617 659.5,667.5C 659.245,665.033 658.245,663.033 656.5,661.5C 655.298,657.422 653.798,653.422 652,649.5C 606.236,564.917 536.403,511.917 442.5,490.5C 437.911,488.125 432.911,487.125 427.5,487.5C 460.833,486.833 494.167,486.167 527.5,485.5C 527.5,484.833 527.5,484.167 527.5,483.5C 491.023,483.617 454.356,483.45 417.5,483C 418.056,482.617 418.389,482.117 418.5,481.5C 430.823,479.06 442.49,475.06 453.5,469.5C 456.871,468.677 460.204,467.511 463.5,466C 465.093,465.051 466.426,463.885 467.5,462.5C 508.199,436.762 533.866,400.429 544.5,353.5C 545.75,353.423 546.583,352.756 547,351.5C 547.05,353.744 547.883,355.411 549.5,356.5 Z"/></g>
<g><path style="opacity:1" fill="#3552a6" d="M 244.5,485.5 C 280.835,485.333 317.168,485.5 353.5,486C 352.584,486.278 351.918,486.778 351.5,487.5C 346.463,487.413 341.463,487.746 336.5,488.5C 336.918,487.778 337.584,487.278 338.5,487C 306.997,486.832 275.664,486.332 244.5,485.5 Z"/></g>
<g><path style="opacity:1" fill="#3552a6" d="M 527.5,485.5 C 494.167,486.167 460.833,486.833 427.5,487.5C 423.5,487.5 419.5,487.5 415.5,487.5C 452.485,485.506 489.818,484.84 527.5,485.5 Z"/></g>
<g><path style="opacity:1" fill="#fefefe" d="M 360.5,156.5 C 376.5,156.5 392.5,156.5 408.5,156.5C 408.279,157.735 407.612,158.735 406.5,159.5C 410.51,161.783 414.843,163.117 419.5,163.5C 455.296,171.825 485.463,189.825 510,217.5C 523.697,233.756 533.53,252.089 539.5,272.5C 540.999,277.99 542.665,283.323 544.5,288.5C 544.5,288.833 544.5,289.167 544.5,289.5C 544.162,292.157 544.829,294.49 546.5,296.5C 547.15,294.816 548.15,293.483 549.5,292.5C 550.006,296.007 549.34,299.174 547.5,302C 548.833,315.667 548.833,329.333 547.5,343C 549.314,345.481 549.98,348.315 549.5,351.5C 546.554,347.37 544.888,348.036 544.5,353.5C 533.866,400.429 508.199,436.762 467.5,462.5C 462.579,464.464 457.912,466.798 453.5,469.5C 442.49,475.06 430.823,479.06 418.5,481.5C 414.901,482.344 411.234,482.677 407.5,482.5C 402.632,483.876 397.632,484.71 392.5,485C 400.367,485.024 408.034,485.857 415.5,487.5C 419.5,487.5 423.5,487.5 427.5,487.5C 429.834,488.124 432.167,488.957 434.5,490C 437.146,490.497 439.813,490.664 442.5,490.5C 536.403,511.917 606.236,564.917 652,649.5C 653.798,653.422 655.298,657.422 656.5,661.5C 656.755,663.967 657.755,665.967 659.5,667.5C 662.706,676.617 666.206,685.617 670,694.5C 672.755,704.116 674.921,713.783 676.5,723.5C 676.999,727.49 677.499,731.49 678,735.5C 678.383,736.056 678.883,736.389 679.5,736.5C 679.5,737.833 679.5,739.167 679.5,740.5C 679.886,748.428 681.553,749.094 684.5,742.5C 684.5,750.5 684.5,758.5 684.5,766.5C 484.5,766.5 284.5,766.5 84.5,766.5C 84.5,758.167 84.5,749.833 84.5,741.5C 85.1993,743.556 86.1993,745.556 87.5,747.5C 88.1757,746.398 88.8423,745.398 89.5,744.5C 91.2862,734.983 92.9529,725.316 94.5,715.5C 96.6362,705.002 99.3029,694.669 102.5,684.5C 103.315,683.571 104.148,682.571 105,681.5C 106.05,676.943 107.55,672.609 109.5,668.5C 110.914,663.594 112.914,658.928 115.5,654.5C 118.432,651.084 120.432,647.084 121.5,642.5C 145.9,596.773 179.9,560.106 223.5,532.5C 225.853,531.66 227.853,530.326 229.5,528.5C 235.239,525.291 240.905,521.791 246.5,518C 248.154,517.392 249.821,516.892 251.5,516.5C 255.818,515.008 259.818,513.008 263.5,510.5C 273.018,505.751 283.018,502.085 293.5,499.5C 296.811,499.117 299.811,498.117 302.5,496.5C 306.518,494.547 310.852,493.547 315.5,493.5C 319.841,493.342 323.841,492.342 327.5,490.5C 330.598,490.244 333.598,489.578 336.5,488.5C 341.463,487.746 346.463,487.413 351.5,487.5C 356.46,486.511 361.46,485.678 366.5,485C 364.331,482.797 361.665,481.964 358.5,482.5C 356.167,482.5 353.833,482.5 351.5,482.5C 341.41,479.567 331.41,476.401 321.5,473C 269.645,449.178 237.311,409.344 224.5,353.5C 224.585,350.351 223.585,347.684 221.5,345.5C 220.504,330.342 220.17,315.009 220.5,299.5C 223.379,296.88 224.712,293.546 224.5,289.5C 227.65,278.917 230.816,268.25 234,257.5C 258.668,205.685 299.168,173.685 355.5,161.5C 357.792,161.756 359.959,161.423 362,160.5C 361.857,159.135 361.357,157.802 360.5,156.5 Z"/></g>
<g><path style="opacity:1" fill="#5163b0" d="M 427.5,487.5 C 432.911,487.125 437.911,488.125 442.5,490.5C 439.813,490.664 437.146,490.497 434.5,490C 432.167,488.957 429.834,488.124 427.5,487.5 Z"/></g>
<g><path style="opacity:1" fill="#a6b2d7" d="M 327.5,490.5 C 323.841,492.342 319.841,493.342 315.5,493.5C 319.159,491.658 323.159,490.658 327.5,490.5 Z"/></g>
<g><path style="opacity:1" fill="#8191c7" d="M 302.5,496.5 C 299.811,498.117 296.811,499.117 293.5,499.5C 296.008,497.446 299.008,496.446 302.5,496.5 Z"/></g>
<g><path style="opacity:1" fill="#8c9acc" d="M 263.5,510.5 C 259.818,513.008 255.818,515.008 251.5,516.5C 254.871,513.481 258.871,511.481 263.5,510.5 Z"/></g>
<g><path style="opacity:1" fill="#8493c8" d="M 229.5,528.5 C 227.853,530.326 225.853,531.66 223.5,532.5C 224.802,530.178 226.802,528.845 229.5,528.5 Z"/></g>
<g><path style="opacity:1" fill="#8894c9" d="M 121.5,642.5 C 120.432,647.084 118.432,651.084 115.5,654.5C 116.583,650.913 117.916,647.413 119.5,644C 119.836,642.97 120.503,642.47 121.5,642.5 Z"/></g>
<g><path style="opacity:1" fill="#8595c9" d="M 656.5,661.5 C 658.245,663.033 659.245,665.033 659.5,667.5C 657.755,665.967 656.755,663.967 656.5,661.5 Z"/></g>
<g><path style="opacity:1" fill="#4852a8" d="M 109.5,668.5 C 107.55,672.609 106.05,676.943 105,681.5C 104.148,682.571 103.315,683.571 102.5,684.5C 102.336,681.813 102.503,679.146 103,676.5C 105.786,674.226 107.953,671.56 109.5,668.5 Z"/></g>
<g><path style="opacity:1" fill="#b6bedf" d="M 94.5,715.5 C 92.9529,725.316 91.2862,734.983 89.5,744.5C 89.5,743.167 89.5,741.833 89.5,740.5C 90.084,732.414 91.2507,724.414 93,716.5C 93.3826,715.944 93.8826,715.611 94.5,715.5 Z"/></g>
<g><path style="opacity:1" fill="#6a7bbc" d="M 676.5,723.5 C 678.439,727.369 679.439,731.703 679.5,736.5C 678.883,736.389 678.383,736.056 678,735.5C 677.499,731.49 676.999,727.49 676.5,723.5 Z"/></g>
<g><path style="opacity:0.735" fill="#435baa" d="M 84.5,735.5 C 86.8251,736.655 87.9918,738.655 88,741.5C 88.3826,740.944 88.8826,740.611 89.5,740.5C 89.5,741.833 89.5,743.167 89.5,744.5C 88.8423,745.398 88.1757,746.398 87.5,747.5C 86.1993,745.556 85.1993,743.556 84.5,741.5C 84.5,739.5 84.5,737.5 84.5,735.5 Z"/></g>
<g><path style="opacity:0.678" fill="#445bab" d="M 684.5,738.5 C 684.5,739.833 684.5,741.167 684.5,742.5C 681.553,749.094 679.886,748.428 679.5,740.5C 680.117,740.611 680.617,740.944 681,741.5C 681.219,740.062 681.719,738.729 682.5,737.5C 683.183,737.863 683.85,738.196 684.5,738.5 Z"/></g>
</svg>
